<svg width="12" height="12" viewBox="0 0 12 12" fill="none" xmlns="http://www.w3.org/2000/svg">
<path d="M2.15501 0.104115C2.17287 -0.0334741 2.37274 -0.0334741 2.39011 0.104115C2.52674 1.17536 3.37012 2.01823 4.44091 2.15491C4.57898 2.17277 4.57898 2.37264 4.44091 2.39001C3.37014 2.52664 2.5268 3.37002 2.39011 4.44081C2.37273 4.57888 2.17287 4.57888 2.15501 4.44081C2.01839 3.37004 1.17549 2.5267 0.104214 2.39001C-0.0333749 2.37263 -0.0333749 2.17277 0.104214 2.15491C1.17546 2.01829 2.01833 1.17539 2.15501 0.104115Z" fill="#BED597"/>
<path d="M7.08155 2.77335C7.11341 2.52473 7.47355 2.52473 7.50493 2.77335C7.79217 5.023 9.56389 6.79474 11.8135 7.08146C12.0622 7.11332 12.0622 7.47347 11.8135 7.50484C9.56389 7.79208 7.79215 9.5638 7.50493 11.8134C7.47355 12.0621 7.11341 12.0621 7.08155 11.8134C6.79479 9.5638 5.02309 7.79206 2.77344 7.50484C2.52482 7.47346 2.52482 7.11332 2.77344 7.08146C5.02309 6.7947 6.79483 5.023 7.08155 2.77335Z" fill="#BED597"/>
</svg>
