<svg width="28" height="28" viewBox="0 0 28 28" fill="none" xmlns="http://www.w3.org/2000/svg">
<path d="M5.02622 0.240793C5.0679 -0.0802642 5.53426 -0.0802642 5.57481 0.240793C5.89362 2.7405 7.8616 4.70727 10.3602 5.02622C10.6824 5.0679 10.6824 5.53426 10.3602 5.57481C7.86166 5.89362 5.89376 7.8616 5.57481 10.3602C5.53426 10.6824 5.06789 10.6824 5.02622 10.3602C4.70741 7.86166 2.74055 5.89376 0.240793 5.57481C-0.0802642 5.53426 -0.0802642 5.06789 0.240793 5.02622C2.7405 4.70741 4.70727 2.74055 5.02622 0.240793Z" fill="#BED597"/>
<path d="M16.522 6.46931C16.5964 5.88917 17.4367 5.88917 17.51 6.46931C18.1802 11.7187 22.3144 15.853 27.5639 16.5221C28.144 16.5964 28.144 17.4368 27.5639 17.51C22.3144 18.1803 18.1802 22.3145 17.51 27.5639C17.4367 28.144 16.5964 28.144 16.522 27.5639C15.8529 22.3145 11.7187 18.1802 6.46928 17.51C5.88914 17.4368 5.88914 16.5964 6.46928 16.5221C11.7187 15.8529 15.853 11.7187 16.522 6.46931Z" fill="#BED597"/>
</svg>
